<?xml version="1.0" encoding="utf-8"?>
<!-- Generator: Adobe Illustrator 15.0.0, SVG Export Plug-In  -->
<!DOCTYPE svg PUBLIC "-//W3C//DTD SVG 1.1//EN" "http://www.w3.org/Graphics/SVG/1.1/DTD/svg11.dtd" [
	<!ENTITY ns_flows "http://ns.adobe.com/Flows/1.0/">
]>
<svg version="1.1"
	 xmlns="http://www.w3.org/2000/svg" xmlns:xlink="http://www.w3.org/1999/xlink" xmlns:a="http://ns.adobe.com/AdobeSVGViewerExtensions/3.0/"
	 x="0px" y="0px" width="1215px" height="110px" viewBox="0 227.136 1215 110" enable-background="new 0 227.136 1215 110"
	 xml:space="preserve">
<defs>
</defs>
<g>
	<defs>
		<rect id="SVGID_1_" y="227.136" width="1215" height="160"/>
	</defs>
	<clipPath id="SVGID_2_">
		<use xlink:href="#SVGID_1_"  overflow="visible"/>
	</clipPath>
	<g clip-path="url(#SVGID_2_)">
		<g>
			<path fill="#C9C9C9" d="M853.378,166.812c1.628-1.557,4.211-1.503,5.768,0.125c1.559,1.626,1.502,4.207-0.123,5.766
				c-1.63,1.558-4.211,1.502-5.77-0.125C851.696,170.953,851.75,168.371,853.378,166.812z"/>
			<path fill="#C9C9C9" d="M657.195,269.418c1.625-1.558,4.209-1.501,5.768,0.126c1.558,1.623,1.502,4.205-0.124,5.765
				c-1.628,1.558-4.21,1.504-5.768-0.124C655.512,273.559,655.569,270.976,657.195,269.418z"/>
			<circle fill="#C9C9C9" cx="622.077" cy="156.882" r="4.079"/>
			<circle fill="#C9C9C9" cx="552.163" cy="314.509" r="4.079"/>
			<circle fill="#C9C9C9" cx="521.087" cy="187.415" r="4.078"/>
			<circle fill="#C9C9C9" cx="728.471" cy="267.958" r="4.077"/>
			<path fill="#C9C9C9" d="M498.429,64.6c1.629-1.559,4.212-1.505,5.771,0.123c1.555,1.627,1.5,4.209-0.126,5.766
				c-1.629,1.559-4.211,1.506-5.768-0.123C496.747,68.739,496.804,66.158,498.429,64.6z"/>
			<path fill="#C9C9C9" d="M412.031,253.845c1.626-1.559,4.206-1.5,5.765,0.125c1.558,1.629,1.503,4.209-0.123,5.768
				c-1.627,1.559-4.207,1.5-5.766-0.123C410.348,257.984,410.403,255.405,412.031,253.845z"/>
			<path fill="#C9C9C9" d="M248.857,287.818c1.627-1.558,4.205-1.502,5.766,0.125c1.559,1.624,1.5,4.208-0.126,5.767
				c-1.626,1.558-4.208,1.503-5.765-0.126C247.173,291.957,247.229,289.376,248.857,287.818z"/>
			<path fill="#C9C9C9" d="M378.82,157.577c1.629-1.559,4.211-1.503,5.769,0.124c1.558,1.626,1.503,4.21-0.125,5.768
				c-1.624,1.557-4.207,1.501-5.767-0.124C377.14,161.716,377.195,159.134,378.82,157.577z"/>
			<path fill="#C9C9C9" d="M488.237,247.769c1.628-1.558,4.207-1.501,5.767,0.124c1.557,1.628,1.503,4.211-0.125,5.768
				c-1.623,1.558-4.209,1.501-5.766-0.124C486.555,251.91,486.611,249.329,488.237,247.769z"/>
			<path fill="#C9C9C9" d="M318.428,248.523c1.627-1.561,4.209-1.504,5.768,0.123c1.558,1.626,1.502,4.211-0.124,5.766
				c-1.63,1.562-4.211,1.504-5.769-0.121C316.743,252.663,316.802,250.08,318.428,248.523z"/>
			<circle fill="#C9C9C9" cx="148.696" cy="262.462" r="4.079"/>
			<circle fill="#C9C9C9" cx="262.212" cy="220.824" r="4.079"/>
			<path fill="#C9C9C9" d="M305.743,168.597c1.175-1.127,3.039-1.084,4.164,0.089c1.124,1.175,1.087,3.038-0.091,4.163
				c-1.174,1.126-3.039,1.086-4.163-0.086C304.529,171.584,304.569,169.72,305.743,168.597z"/>
			<circle fill="#C9C9C9" cx="490.929" cy="2.945" r="2.945"/>
			<circle fill="#C9C9C9" cx="187.126" cy="183.827" r="2.944"/>
			<polyline fill="none" stroke="#C9C9C9" stroke-width="0.5196" stroke-miterlimit="10" points="262.076,222.034 251.677,291.135 
				251.677,291.135 251.677,291.135 415.215,257.533 380.58,159.752 502.506,67.133 523.26,186.424 622.509,156.701 
				729.513,268.177 662.388,271.935 552.175,314.213 622.509,156.701 660.352,273.852 			"/>
			<polyline fill="none" stroke="#C9C9C9" stroke-width="0.5196" stroke-miterlimit="10" points="502.506,67.133 491.134,2.636 
				380.58,159.752 			"/>
			<polyline fill="none" stroke="#C9C9C9" stroke-width="0.5196" stroke-miterlimit="10" points="552.175,314.213 491.058,250.715 
				415.215,257.533 521.064,188.526 552.175,314.213 415.215,257.533 500.333,68.782 622.509,156.701 606.732,74.091 			"/>
			
				<line fill="none" stroke="#C9C9C9" stroke-width="0.5196" stroke-miterlimit="10" x1="491.058" y1="250.715" x2="521.064" y2="188.526"/>
			<polyline fill="none" stroke="#C9C9C9" stroke-width="0.5196" stroke-miterlimit="10" points="415.215,257.533 321.252,251.468 
				251.677,291.135 148.696,262.462 51.049,223.035 251.677,171.427 262.305,220.664 148.696,262.462 			"/>
			<polyline fill="none" stroke="#C9C9C9" stroke-width="0.5196" stroke-miterlimit="10" points="661.767,271.406 729.513,268.177 
				801.135,239.71 729.824,178.838 728.304,264.672 			"/>
			<polyline fill="none" stroke="#C9C9C9" stroke-width="0.5196" stroke-miterlimit="10" points="502.596,67.589 620.759,93.281 
				683.571,175.721 622.509,156.701 			"/>
			
				<line fill="none" stroke="#C9C9C9" stroke-width="0.5196" stroke-miterlimit="10" x1="380.514" y1="158.01" x2="388.385" y2="36.188"/>
			
				<line fill="none" stroke="#C9C9C9" stroke-width="0.5196" stroke-miterlimit="10" x1="321.837" y1="99.205" x2="308.15" y2="171.427"/>
			<polyline fill="none" stroke="#C9C9C9" stroke-width="0.5196" stroke-miterlimit="10" points="264.12,222.916 321.252,251.468 
				381.643,160.521 308.15,171.427 262.305,220.664 183.475,183.436 			"/>
			
				<line fill="none" stroke="#C9C9C9" stroke-width="0.5196" stroke-miterlimit="10" x1="307.78" y1="170.724" x2="241.857" y2="145.936"/>
		</g>
		<g>
			<circle fill="#C9C9C9" cx="1431.759" cy="346.287" r="4.077"/>
			<path fill="#C9C9C9" d="M1290.166,276.121c1.612-1.57,4.194-1.537,5.767,0.078c1.57,1.613,1.535,4.195-0.076,5.765
				c-1.615,1.573-4.195,1.538-5.766-0.075C1288.519,280.273,1288.551,277.694,1290.166,276.121z"/>
			<circle fill="#C9C9C9" cx="1254.115" cy="163.88" r="4.079"/>
			<circle fill="#C9C9C9" cx="1185.512" cy="322.084" r="4.077"/>
			<circle fill="#C9C9C9" cx="1153.381" cy="195.253" r="4.078"/>
			<circle fill="#C9C9C9" cx="1361.425" cy="274.067" r="4.078"/>
			<circle fill="#C9C9C9" cx="1132.549" cy="75.551" r="4.079"/>
			<circle fill="#C9C9C9" cx="1047.726" cy="265.511" r="4.079"/>
			<circle fill="#C9C9C9" cx="884.838" cy="300.836" r="4.08"/>
			<circle fill="#C9C9C9" cx="1013.717" cy="169.517" r="4.079"/>
			<path fill="#C9C9C9" d="M1121.033,255.878c1.613-1.57,4.194-1.539,5.768,0.077c1.569,1.611,1.535,4.195-0.077,5.766
				c-1.614,1.572-4.196,1.534-5.765-0.076C1119.386,260.029,1119.42,257.451,1121.033,255.878z"/>
			<circle fill="#C9C9C9" cx="954.082" cy="260.965" r="4.077"/>
			<path fill="#C9C9C9" d="M798.29,236.789c1.614-1.571,4.195-1.541,5.77,0.076c1.569,1.611,1.535,4.195-0.079,5.768
				s-4.197,1.536-5.767-0.075C796.64,240.941,796.675,238.362,798.29,236.789z"/>
			<polygon fill="none" stroke="#C9C9C9" stroke-width="0.5196" stroke-miterlimit="10" points="884.84,300.836 1013.719,169.519 
				1048.093,266.247 			"/>
			
				<line fill="none" stroke="#C9C9C9" stroke-width="0.7795" stroke-miterlimit="10" x1="884.839" y1="300.835" x2="856.199" y2="169.517"/>
			<polyline fill="none" stroke="#C9C9C9" stroke-width="0.5196" stroke-miterlimit="10" points="1013.719,169.519 1132.549,75.551 
				1153.381,195.252 1254.544,163.697 1185.522,321.789 1293.011,279.044 1431.758,346.287 1254.544,163.697 			"/>
			
				<line fill="none" stroke="#C9C9C9" stroke-width="0.5196" stroke-miterlimit="10" x1="1292.689" y1="277.09" x2="1254.544" y2="163.697"/>
			<polyline fill="none" stroke="#C9C9C9" stroke-width="0.5196" stroke-miterlimit="10" points="1132.549,75.551 1121.892,10.73 
				1012.652,168.758 			"/>
			<polyline fill="none" stroke="#C9C9C9" stroke-width="0.5196" stroke-miterlimit="10" points="1185.522,321.789 1123.88,258.8 
				1048.093,266.247 1153.365,196.363 1185.522,321.789 1048.093,266.247 1131.642,76.797 1254.544,163.697 1238.08,81.221 			"/>
			
				<line fill="none" stroke="#C9C9C9" stroke-width="0.5196" stroke-miterlimit="10" x1="1123.88" y1="258.8" x2="1153.365" y2="196.363"/>
			<polyline fill="none" stroke="#C9C9C9" stroke-width="0.5196" stroke-miterlimit="10" points="1048.093,266.247 954.082,260.964 
				884.84,301.208 801.135,239.71 856.199,168.758 			"/>
			<polyline fill="none" stroke="#C9C9C9" stroke-width="0.5196" stroke-miterlimit="10" points="954.082,260.964 1013.719,169.519 
				940.313,181.036 			"/>
			<polyline fill="none" stroke="#C9C9C9" stroke-width="0.5196" stroke-miterlimit="10" points="1294.755,278.07 1363.279,272.99 
				1414.201,289.992 1364.085,187.144 1360.571,273.191 			"/>
			
				<line fill="none" stroke="#C9C9C9" stroke-width="0.5196" stroke-miterlimit="10" x1="1360.571" y1="273.191" x2="1388.176" y2="248.744"/>
			<polyline fill="none" stroke="#C9C9C9" stroke-width="0.5196" stroke-miterlimit="10" points="1473.817,350.089 
				1431.628,346.152 1436,308.652 			"/>
			<polyline fill="none" stroke="#C9C9C9" stroke-width="0.5196" stroke-miterlimit="10" points="1133.8,75.129 1253.847,97.41 
				1315.758,182.208 1254.544,163.697 			"/>
			
				<line fill="none" stroke="#C9C9C9" stroke-width="0.5196" stroke-miterlimit="10" x1="1012.652" y1="168.758" x2="1020.649" y2="41.873"/>
		</g>
	</g>
</g>
</svg>
