<?xml version="1.0" encoding="utf-8"?>
<!-- Generator: Adobe Illustrator 15.0.0, SVG Export Plug-In  -->
<!DOCTYPE svg PUBLIC "-//W3C//DTD SVG 1.1//EN" "http://www.w3.org/Graphics/SVG/1.1/DTD/svg11.dtd" [
	<!ENTITY ns_flows "http://ns.adobe.com/Flows/1.0/">
]>
<svg version="1.1"
	 xmlns="http://www.w3.org/2000/svg" xmlns:xlink="http://www.w3.org/1999/xlink" xmlns:a="http://ns.adobe.com/AdobeSVGViewerExtensions/3.0/"
	 x="0px" y="0px" width="237px" height="285px" viewBox="117.046875 130.253418 237 285"
	 enable-background="new 117.046875 130.253418 237 285" xml:space="preserve">
<defs>
</defs>
<g>
	<defs>
		<rect id="SVGID_1_" x="41.1083984" width="313" height="415"/>
	</defs>
	<clipPath id="SVGID_2_">
		<use xlink:href="#SVGID_1_"  overflow="visible"/>
	</clipPath>
	<g clip-path="url(#SVGID_2_)">
		<g>
			<polygon fill="#E7E7E4" points="275.3037109,311.6347656 267.4580078,466.4472656 393.5986328,529.3144531 			"/>
			<polygon fill="#EDEDED" points="346.2871094,224.4277344 392.8642578,351.8984375 275.3037109,311.6347656 			"/>
			<polygon fill="#E7E7E4" points="357.0205078,129.1972656 393.6914063,346.5625 477.0761719,228.5605469 			"/>
			<polygon fill="#E7E4E4" points="122.9599609,404.6962891 275.3310547,311.7910156 227.6572266,390.1650391 
				128.0654297,403.9443359 			"/>
			<polygon fill="#E1E1E6" points="398.4443359,528.6445313 231.5322266,582.5664063 303.0107422,619.5576172 			"/>
			<polygon fill="#E1E1E6" points="357.0205078,129.1972656 274.2236328,313.6103516 346.2871094,224.4277344 			"/>
			<polygon fill="#E1E1E6" points="275.3037109,311.6347656 392.9189453,525.6132813 392.8642578,351.8984375 			"/>
			<polygon fill="#DCDCDC" points="122.9599609,404.6962891 227.6572266,390.1650391 265.8496094,463.9414063 			"/>
			<polygon fill="#E7E7E4" points="226.6875,583.2373047 267.4580078,466.4472656 122.9599609,404.6962891 			"/>
			<polygon fill="#DCDCDC" points="222.9990234,586.4472656 87.5009766,541.2802734 122.9599609,404.6962891 			"/>
		</g>
	</g>
</g>
<circle fill="#C9C9C9" cx="118.0595703" cy="416.8261719" r="3.2216797"/>
<circle fill="#C9C9C9" cx="152.9458008" cy="332.2763672" r="3.2211914"/>
<circle fill="#C9C9C9" cx="242.4208984" cy="383.9912109" r="3.2216797"/>
<circle fill="#C9C9C9" cx="260.8901367" cy="285.4882813" r="3.2211914"/>
<circle fill="#C9C9C9" cx="330.6640625" cy="173.8496094" r="3.2207031"/>
<circle fill="#C9C9C9" cx="333.9477539" cy="319.1435547" r="3.2211914"/>
<circle fill="#C9C9C9" cx="222.7202148" cy="332.2763672" r="3.2211914"/>
<circle fill="#C9C9C9" cx="315.0673828" cy="235.0048828" r="3.2207031"/>
<polyline fill="none" stroke="#C9C9C9" stroke-miterlimit="10" points="364.1865234,217.3339844 330.453125,173.6455078 
	334.9677734,318.9589844 330.453125,173.6455078 260.2695313,285.2890625 334.9677734,318.9589844 321.1845703,439.1083984 
	241.7998047,385.7089844 204.5283203,458.5 2.9267578,458.5 117.0097656,418.3505859 153.1083984,332.4160156 
	204.5283203,458.6103516 117.0283203,416.1972656 "/>
<polyline fill="none" stroke="#C9C9C9" stroke-width="0.8868586" stroke-miterlimit="10" points="321.1845703,439.1083984 
	364.1865234,467.859375 334.9677734,318.9589844 "/>
<polyline fill="none" stroke="#C9C9C9" stroke-width="0.8868586" stroke-miterlimit="10" points="153.1083984,332.4462891 
	222.7207031,332.2773438 260.2695313,285.2890625 241.7998047,383.3701172 153.1083984,332.4462891 260.2695313,285.2890625 
	321.4296875,436.96875 204.5283203,458.6259766 260.2695313,494.7587891 "/>
<line fill="none" stroke="#C9C9C9" stroke-width="0.8868586" stroke-miterlimit="10" x1="222.7207031" y1="332.2773438" x2="241.7998047" y2="383.3701172"/>
<polyline fill="none" stroke="#C9C9C9" stroke-width="0.8868586" stroke-miterlimit="10" points="260.2695313,285.2890625 
	315.0683594,235.0048828 330.453125,173.6455078 353.6484375,102.8447266 "/>
<polyline fill="none" stroke="#C9C9C9" stroke-width="0.8868586" stroke-miterlimit="10" points="315.0683594,235.0048828 
	333.9482422,319.1435547 367.8808594,271.2626953 "/>
<line fill="none" stroke="#C9C9C9" stroke-width="0.8868586" stroke-miterlimit="10" x1="353.6484375" y1="99.6230469" x2="374.4472656" y2="180.9667969"/>
<line fill="none" stroke="#C9C9C9" stroke-width="0.8868586" stroke-miterlimit="10" x1="337.1689453" y1="322.3652344" x2="402.3574219" y2="393.4101563"/>
</svg>
