<?xml version="1.0" encoding="utf-8"?>
<!-- Generator: Adobe Illustrator 15.0.0, SVG Export Plug-In  -->
<!DOCTYPE svg PUBLIC "-//W3C//DTD SVG 1.1//EN" "http://www.w3.org/Graphics/SVG/1.1/DTD/svg11.dtd" [
	<!ENTITY ns_flows "http://ns.adobe.com/Flows/1.0/">
]>
<svg version="1.1"
	 xmlns="http://www.w3.org/2000/svg" xmlns:xlink="http://www.w3.org/1999/xlink" xmlns:a="http://ns.adobe.com/AdobeSVGViewerExtensions/3.0/"
	 x="0px" y="0px" width="580px" height="171px" viewBox="10.8081055 161.2207031 580 171"
	 enable-background="new 10.8081055 161.2207031 580 171" xml:space="preserve">
<defs>
</defs>
<g>
	<defs>
		<rect id="SVGID_1_" x="5.8081055" y="161.2207031" width="585" height="185"/>
	</defs>
	<clipPath id="SVGID_2_">
		<use xlink:href="#SVGID_1_"  overflow="visible"/>
	</clipPath>
	<g clip-path="url(#SVGID_2_)">
		<circle fill="#C9C9C9" cx="552.4887695" cy="179.3945313" r="3.500097"/>
		<circle fill="#C9C9C9" cx="495.2231445" cy="147.3813477" r="3.5002217"/>
		<path fill="#C9C9C9" d="M409.3598633,266.3183594c1.6210938-1.0566406,3.7890625-0.6015625,4.8457031,1.0175781
			s0.5996094,3.7880859-1.0205078,4.84375c-1.6162109,1.0566406-3.7851563,0.6005859-4.8417969-1.0175781
			C407.2856445,269.5429688,407.7436523,267.375,409.3598633,266.3183594z"/>
		<path fill="#C9C9C9" d="M403.2944336,154.1982422c1.6201172-1.0566406,3.7890625-0.6015625,4.8457031,1.0185547
			c1.0537109,1.6191406,0.6005859,3.7871094-1.0185547,4.84375c-1.6210938,1.0566406-3.7890625,0.6005859-4.8447266-1.0175781
			C401.2202148,157.4238281,401.675293,155.2558594,403.2944336,154.1982422z"/>
		<circle fill="#C9C9C9" cx="567.3554688" cy="257.9272461" r="3.4999547"/>
		<circle fill="#C9C9C9" cx="407.4726563" cy="52.8845215" r="3.5001593"/>
		<circle fill="#C9C9C9" cx="291.859375" cy="112.3491211" r="3.4999547"/>
		<circle fill="#C9C9C9" cx="226.5063477" cy="179.484375" r="3.5006306"/>
		<circle fill="#C9C9C9" cx="83.5063477" cy="221.484375" r="3.5006306"/>
		
			<line fill="none" stroke="#C9C9C9" stroke-width="0.75" stroke-miterlimit="10" x1="369.847168" y1="205.7597656" x2="405.0112305" y2="158.0644531"/>
		<g>
			<polyline fill="none" stroke="#C9C9C9" stroke-width="0.445936" stroke-miterlimit="10" points="408.730957,56.7338867 
				409.3618164,0.5341797 291.2202148,115.5273438 			"/>
			
				<line fill="none" stroke="#C9C9C9" stroke-width="0.445936" stroke-miterlimit="10" x1="293.012207" y1="111.5039063" x2="318.9536133" y2="10.0053711"/>
			<g>
				<g>
					<polyline fill="none" stroke="#C9C9C9" stroke-width="0.75" stroke-miterlimit="10" points="180.2661133,145.3144531 
						160.5415039,201.9492188 290.0854492,111.5644531 160.5415039,201.9492188 303.8012695,199.5244141 290.0854492,111.5644531 
						407.5961914,52.7700195 406.1977539,156.671875 494.6176758,147.3320313 611.9418945,327.8974609 509.987793,250.8417969 
						410.3325195,269.0341797 494.6176758,147.3320313 507.9692383,252.1367188 					"/>
					<polyline fill="none" stroke="#C9C9C9" stroke-width="0.75" stroke-miterlimit="10" points="410.3325195,269.0341797 
						368.8481445,205.7939453 303.8012695,199.5244141 404.012207,158.0976563 410.3325195,269.0341797 303.8012695,199.5244141 
						405.5043945,53.8173828 494.6176758,147.3320313 494.4008789,75.1577148 					"/>
					<polyline fill="none" stroke="#C9C9C9" stroke-width="0.75" stroke-miterlimit="10" points="303.8012695,199.5244141 
						225.5073242,179.5175781 160.5415039,201.9492188 82.3452148,222.8779297 					"/>
					<polyline fill="none" stroke="#C9C9C9" stroke-width="0.75" stroke-miterlimit="10" points="225.5073242,179.5175781 
						290.8588867,112.3828125 227.1430664,109.9345703 					"/>
					
						<line fill="none" stroke="#C9C9C9" stroke-width="0.75" stroke-miterlimit="10" x1="83.9672852" y1="221.8203125" x2="0.2451172" y2="149.3964844"/>
					
						<line fill="none" stroke="#C9C9C9" stroke-width="0.75" stroke-miterlimit="10" x1="82.4135742" y1="223.7910156" x2="144.0825195" y2="156.5703125"/>
					
						<line fill="none" stroke="#C9C9C9" stroke-width="0.75" stroke-miterlimit="10" x1="565.7827148" y1="257.0810547" x2="624.9213867" y2="234.1210938"/>
					<polyline fill="none" stroke="#C9C9C9" stroke-width="0.75" stroke-miterlimit="10" points="648.4174805,340.5751953 
						614.3120117,330.7734375 625.8959961,299.9414063 					"/>
					<polyline fill="none" stroke="#C9C9C9" stroke-width="0.75" stroke-miterlimit="10" points="409.4057617,51.0053711 
						504.9975586,91.3979492 499.8354492,118.4433594 494.6176758,147.3320313 551.0698242,179.515625 566.355957,257.9599609 
						581.4672852,224.0644531 604.6030273,160.7773438 608.1616211,280.1015625 568.0922852,257.359375 509.550293,250.2978516 
											"/>
				</g>
				<g>
					<g>
						<path fill="#C9C9C9" d="M550.1547852,186.1835938c-0.9169922,0.4003906-1.9853516-0.0283203-2.3818359-0.9394531
							c-0.4023438-0.9208984,0.0224609-1.9902344,0.9394531-2.3955078c0.9199219-0.3974609,1.9853516,0.0244141,2.3857422,0.9423828
							C551.4946289,184.7128906,551.0786133,185.7890625,550.1547852,186.1835938z"/>
						<path fill="#C9C9C9" d="M556.6040039,176.1738281c-0.921875,0.3994141-1.9902344-0.0234375-2.3886719-0.9394531
							c-0.3984375-0.9277344,0.0205078-1.9921875,0.9453125-2.3916016c0.9121094-0.4052734,1.9863281,0.0234375,2.3818359,0.9462891
							C557.9487305,174.7080078,557.5219727,175.7773438,556.6040039,176.1738281z"/>
						<path fill="#C9C9C9" d="M553.5834961,181.6308594c-1.1708984,0.5078125-2.5380859-0.0224609-3.0419922-1.1933594
							c-0.5185547-1.1796875,0.0273438-2.5371094,1.1962891-3.0429688c1.1748047-0.5097656,2.5302734,0.0253906,3.0400391,1.2011719
							C555.2915039,179.7636719,554.7446289,181.1269531,553.5834961,181.6308594z"/>
					</g>
					<g>
						<path fill="#C9C9C9" d="M545.987793,177.015625c-0.4003906-0.9228516,0.0283203-1.9921875,0.9414063-2.3876953
							c0.9199219-0.4013672,1.9882813,0.0195313,2.3896484,0.9404297c0.4003906,0.9199219-0.0175781,1.9853516-0.9384766,2.3847656
							C547.4614258,178.3505859,546.3862305,177.9345703,545.987793,177.015625z"/>
						<path fill="#C9C9C9" d="M555.9946289,183.4599609c-0.390625-0.9208984,0.0263672-1.9912109,0.9472656-2.3886719
							c0.9169922-0.4023438,1.984375,0.0224609,2.3847656,0.9443359c0.40625,0.9150391-0.0234375,1.9853516-0.9414063,2.3847656
							C557.465332,184.8056641,556.3969727,184.3798828,555.9946289,183.4599609z"/>
					</g>
					<g>
						<path fill="#C9C9C9" d="M546.1733398,182.4589844c-0.9345703-0.3632813-1.390625-1.4208984-1.0214844-2.3476563
							c0.3652344-0.9316406,1.4189453-1.390625,2.3554688-1.0253906c0.9296875,0.3681641,1.390625,1.4199219,1.0214844,2.3525391
							S547.1088867,182.8339844,546.1733398,182.4589844z"/>
						<path fill="#C9C9C9" d="M557.8022461,179.9433594c-0.9267578-0.3701172-1.3828125-1.4189453-1.0175781-2.3535156
							c0.3701172-0.9375,1.4248047-1.3945313,2.359375-1.0214844c0.9287109,0.359375,1.3867188,1.4179688,1.0175781,2.3535156
							C559.8032227,179.859375,558.7426758,180.3085938,557.8022461,179.9433594z"/>
					</g>
					<g>
						<path fill="#C9C9C9" d="M552.6518555,186.640625c0.7197266,0.6972656,1.8759766,0.6796875,2.5673828-0.0449219
							c0.6992188-0.71875,0.6816406-1.8671875-0.0390625-2.5664063c-0.7246094-0.6962891-1.8691406-0.671875-2.5673828,0.0429688
							C551.9145508,184.7929688,551.9301758,185.9443359,552.6518555,186.640625z"/>
						<path fill="#C9C9C9" d="M550.1333008,175.0058594c0.7236328,0.6953125,1.8730469,0.6757813,2.5683594-0.0449219
							c0.6982422-0.7226563,0.6787109-1.8710938-0.046875-2.5644531c-0.7148438-0.6992188-1.8701172-0.6796875-2.5625,0.0449219
							C549.3852539,173.1611328,549.4116211,174.3105469,550.1333008,175.0058594z"/>
					</g>
				</g>
			</g>
		</g>
		<circle fill="#008685" cx="161.6020508" cy="201.6015625" r="3.499279"/>
		<circle fill="#C9C9C9" cx="304.6098633" cy="198.8085938" r="3.5006306"/>
		<circle fill="#6200EE" cx="369.8476563" cy="205.7602539" r="3.4999547"/>
		<circle fill="#009191" cx="508.9208984" cy="250.7949219" r="3.5003638"/>
		
			<line fill="none" stroke="#C9C9C9" stroke-width="0.75" stroke-miterlimit="10" x1="555.4204102" y1="177.4804688" x2="639.5366211" y2="157.0820313"/>
	</g>
</g>
</svg>
