<?xml version="1.0" encoding="utf-8"?>
<!-- Generator: Adobe Illustrator 15.0.0, SVG Export Plug-In  -->
<!DOCTYPE svg PUBLIC "-//W3C//DTD SVG 1.1//EN" "http://www.w3.org/Graphics/SVG/1.1/DTD/svg11.dtd" [
	<!ENTITY ns_flows "http://ns.adobe.com/Flows/1.0/">
]>
<svg version="1.1"
	 xmlns="http://www.w3.org/2000/svg" xmlns:xlink="http://www.w3.org/1999/xlink" xmlns:a="http://ns.adobe.com/AdobeSVGViewerExtensions/3.0/"
	 x="0px" y="0px" width="336px" height="91px" viewBox="-2.114 -2.181 336 91" enable-background="new -2.114 -2.181 336 91"
	 xml:space="preserve">
<defs>
</defs>
<path fill="#6200EE" d="M116.892,50.911l-14.906-15.03v16.134h-4.063V30.715c0-0.629,0.162-1.126,0.488-1.494
	c0.327-0.368,0.748-0.552,1.27-0.552c0.752,0,1.526,0.401,2.305,1.2l14.972,14.999V28.669h4.059v21.3
	c0,1.492-0.518,2.237-1.551,2.237C118.698,52.207,117.842,51.776,116.892,50.911z"/>
<path fill="#6200EE" d="M130.541,48.051h16.115v4.059h-20.173V28.765h20.173v4.059h-16.115V48.051z M145.617,38.216v4.063h-13.352
	v-4.063H145.617z"/>
<path fill="#6200EE" d="M165.228,52.11h-1.401c-3.943,0-6.907-0.766-8.9-2.301c-2.206-1.712-3.311-4.451-3.311-8.219V28.765h4.064
	v12.822c0,2.472,0.754,4.214,2.269,5.23c1.257,0.822,3.221,1.234,5.878,1.234h1.401c2.661,0,4.618-0.412,5.879-1.234
	c1.518-1.016,2.27-2.758,2.27-5.23V28.765h4.062V41.59c0,3.768-1.116,6.507-3.343,8.219C172.121,51.344,169.165,52.11,165.228,52.11
	z"/>
<path fill="#6200EE" d="M290.429,52.11h-1.394c-3.938,0-6.911-0.766-8.903-2.301c-2.207-1.712-3.311-4.451-3.311-8.219V28.765h4.059
	v12.822c0,2.472,0.76,4.214,2.275,5.23c1.258,0.822,3.215,1.234,5.88,1.234h1.394c2.664,0,4.623-0.412,5.879-1.234
	c1.519-1.016,2.27-2.758,2.27-5.23V28.765h4.063V41.59c0,3.768-1.11,6.507-3.34,8.219C297.329,51.344,294.372,52.11,290.429,52.11z"
	/>
<path fill="#6200EE" d="M209.658,52.11h-6.015l-6.526-6.532h-8.774v-4.06h10.939c1.908,0,3.363-0.468,4.361-1.4
	c0.869-0.851,1.27-1.888,1.201-3.127c-0.148-2.777-2.004-4.166-5.563-4.166H185.94V52.11h-4.061V28.765h16.779
	c3.531,0,6.21,0.855,8.032,2.573c1.537,1.429,2.343,3.316,2.411,5.66c0.061,1.849-0.434,3.473-1.479,4.882
	c-1.164,1.564-2.85,2.64-5.059,3.224L209.658,52.11z"/>
<path fill="#6200EE" d="M234.282,45.641h-11.09l2.486-4.057h6.211l-4.103-6.72l-10.512,17.251h-5.257l12.67-21.087
	c0.412-0.667,0.939-1.214,1.587-1.647c0.571-0.386,1.063-0.594,1.499-0.612c0.477-0.047,1.005,0.118,1.588,0.484
	c0.676,0.432,1.238,1.029,1.689,1.785l12.413,21.078h-5.231L234.282,45.641z"/>
<path fill="#6200EE" d="M244.36,52.11V28.765h4.063v19.286h16.08v4.059H244.36z"/>
<path fill="#6200EE" d="M268.229,52.11V28.765h4.063V52.11H268.229z"/>
<path fill="#6200EE" d="M320.765,41.846l-12.004-12.031c-0.793-0.812-1.566-1.22-2.337-1.22c-0.526,0-0.956,0.189-1.286,0.561
	c-0.332,0.377-0.492,0.878-0.492,1.517v21.605h4.115V35.91l8.945,9.024L320.765,41.846z"/>
<path fill="#6200EE" d="M314.646,41.846l12.009-12.031c0.787-0.812,1.575-1.22,2.339-1.22c0.525,0,0.957,0.189,1.283,0.561
	c0.323,0.377,0.502,0.878,0.502,1.517v21.605h-4.124V35.91l-8.948,9.024L314.646,41.846z"/>
<path fill="#008685" d="M269.903,26.768c0,0-2.695-10.065,7.475-13.341c10.007-3.216,6.695-6.948,7.432-6.479l0,0
	C284.81,6.947,287.925,23.896,269.903,26.768"/>
<path fill="#008685" d="M42.518,19.323c-0.997,0.712-2.389,0.482-3.101-0.512c-0.718-0.997-0.488-2.387,0.51-3.103
	c1-0.714,2.385-0.484,3.1,0.512C43.744,17.219,43.517,18.606,42.518,19.323z"/>
<path fill="#008685" d="M42.747,25.63c-1.173,0.845-2.81,0.574-3.653-0.598c-0.844-1.177-0.572-2.813,0.599-3.657
	c1.178-0.845,2.813-0.574,3.662,0.599C44.193,23.152,43.921,24.789,42.747,25.63z"/>
<path fill="#008685" d="M42.257,13.938c-0.795,0.568-1.909,0.387-2.48-0.414c-0.569-0.794-0.39-1.902,0.41-2.48
	c0.796-0.567,1.908-0.384,2.479,0.412C43.235,12.253,43.055,13.366,42.257,13.938z"/>
<circle fill="#008685" cx="41.013" cy="8.387" r="1.11"/>
<path fill="#008685" d="M41.938,1.726c-0.341,0.509-1.028,0.647-1.541,0.307c-0.509-0.342-0.645-1.03-0.306-1.538
	c0.34-0.513,1.029-0.647,1.54-0.305C42.144,0.526,42.279,1.217,41.938,1.726z"/>
<path fill="#008685" d="M42.193,5.532c-0.435,0.65-1.315,0.826-1.962,0.391c-0.655-0.432-0.825-1.312-0.39-1.958
	c0.433-0.65,1.31-0.826,1.962-0.389C42.453,4.008,42.623,4.886,42.193,5.532z"/>
<path fill="#008685" d="M36.758,5.669c-0.509-0.34-0.645-1.028-0.307-1.539c0.341-0.507,1.031-0.645,1.542-0.306
	c0.511,0.342,0.646,1.029,0.306,1.537C37.959,5.873,37.27,6.015,36.758,5.669z"/>
<path fill="#008685" d="M44.039,5.673C43.53,5.329,43.39,4.641,43.731,4.13c0.341-0.51,1.03-0.645,1.541-0.304
	c0.511,0.339,0.645,1.027,0.304,1.538C45.24,5.879,44.548,6.012,44.039,5.673z"/>
<path fill="#008685" d="M38.658,8.41c-0.601,0.123-1.186-0.272-1.304-0.869c-0.119-0.599,0.271-1.187,0.872-1.306
	c0.602-0.119,1.184,0.27,1.305,0.872C39.647,7.708,39.261,8.292,38.658,8.41z"/>
<path fill="#008685" d="M43.806,3.267C43.205,3.382,42.62,2.994,42.5,2.393c-0.119-0.604,0.27-1.187,0.875-1.304
	c0.599-0.124,1.182,0.271,1.302,0.872C44.8,2.565,44.408,3.146,43.806,3.267z"/>
<circle fill="#008685" cx="43.589" cy="7.324" r="1.11"/>
<path fill="#008685" d="M38.226,3.268c0.602,0.117,1.186-0.272,1.306-0.874c0.118-0.602-0.271-1.187-0.874-1.305
	c-0.6-0.121-1.186,0.272-1.303,0.872C37.229,2.565,37.625,3.148,38.226,3.268z"/>
<path fill="#008685" d="M61.096,26.431c-1.22-0.091-2.144-1.159-2.049-2.379c0.09-1.226,1.157-2.146,2.378-2.054
	c1.228,0.092,2.141,1.156,2.054,2.381C63.384,25.604,62.324,26.519,61.096,26.431z"/>
<path fill="#008685" d="M57.224,31.42c-1.438-0.106-2.523-1.366-2.415-2.807c0.108-1.442,1.364-2.521,2.804-2.418
	c1.441,0.109,2.522,1.364,2.42,2.807C59.925,30.444,58.667,31.528,57.224,31.42z"/>
<path fill="#008685" d="M64.35,22.128c-0.977-0.071-1.711-0.922-1.638-1.903c0.071-0.978,0.92-1.711,1.904-1.641
	c0.975,0.076,1.716,0.929,1.637,1.903C66.181,21.469,65.332,22.205,64.35,22.128z"/>
<path fill="#008685" d="M67.269,18.144c-0.588,0.174-1.206-0.167-1.377-0.75c-0.173-0.59,0.163-1.207,0.752-1.382
	c0.587-0.173,1.202,0.165,1.375,0.752C68.19,17.353,67.857,17.975,67.269,18.144z"/>
<path fill="#008685" d="M71.937,12.559c-0.589,0.173-1.204-0.166-1.377-0.751c-0.172-0.592,0.163-1.206,0.754-1.38
	c0.586-0.174,1.204,0.167,1.373,0.754C72.866,11.772,72.526,12.387,71.937,12.559z"/>
<path fill="#008685" d="M69.692,15.641c-0.75,0.218-1.538-0.205-1.755-0.954c-0.227-0.755,0.209-1.538,0.957-1.757
	c0.75-0.22,1.532,0.208,1.753,0.96C70.869,14.639,70.435,15.425,69.692,15.641z"/>
<circle fill="#008685" cx="66.498" cy="11.953" r="1.11"/>
<path fill="#008685" d="M71.016,16.935c-0.167-0.589,0.168-1.208,0.756-1.378c0.588-0.175,1.202,0.164,1.373,0.755
	c0.178,0.584-0.164,1.201-0.751,1.374C71.807,17.861,71.19,17.521,71.016,16.935z"/>
<path fill="#008685" d="M65.133,15.583c-0.54-0.292-0.735-0.967-0.443-1.503c0.294-0.535,0.969-0.734,1.509-0.441
	c0.536,0.294,0.735,0.965,0.44,1.504C66.345,15.679,65.669,15.88,65.133,15.583z"/>
<path fill="#008685" d="M72.381,14.937c-0.537-0.294-0.735-0.966-0.441-1.505c0.294-0.542,0.97-0.738,1.51-0.441
	c0.534,0.289,0.733,0.965,0.437,1.506C73.599,15.038,72.92,15.23,72.381,14.937z"/>
<circle fill="#008685" cx="69.613" cy="17.914" r="1.111"/>
<path fill="#008685" d="M68.099,11.362c0.387,0.474,1.086,0.551,1.563,0.166c0.477-0.384,0.554-1.083,0.167-1.559
	c-0.382-0.479-1.085-0.553-1.56-0.166C67.786,10.184,67.715,10.882,68.099,11.362z"/>
<path fill="#008685" d="M68.918,43.963c-0.767-0.957-0.615-2.356,0.341-3.122c0.956-0.772,2.355-0.619,3.12,0.337
	c0.774,0.954,0.62,2.354-0.335,3.124C71.087,45.071,69.693,44.924,68.918,43.963z"/>
<path fill="#008685" d="M62.592,44.644c-0.903-1.125-0.727-2.772,0.4-3.678c1.128-0.906,2.775-0.731,3.681,0.396
	c0.907,1.126,0.727,2.778-0.395,3.686C65.15,45.952,63.499,45.774,62.592,44.644z"/>
<path fill="#008685" d="M74.519,43.308c-0.608-0.767-0.492-1.885,0.276-2.498c0.762-0.614,1.882-0.494,2.498,0.272
	c0.613,0.762,0.493,1.883-0.27,2.494C76.253,44.19,75.138,44.071,74.519,43.308z"/>
<path fill="#008685" d="M79.67,42.953c-0.529-0.31-0.702-0.992-0.389-1.52c0.31-0.528,0.989-0.702,1.519-0.393
	c0.531,0.313,0.699,0.995,0.394,1.521C80.877,43.091,80.198,43.264,79.67,42.953z"/>
<path fill="#008685" d="M80.781,45.405c-0.529-0.313-0.699-0.992-0.39-1.525c0.314-0.528,0.993-0.702,1.516-0.391
	c0.534,0.313,0.708,0.994,0.396,1.522C81.991,45.54,81.31,45.713,80.781,45.405z"/>
<path fill="#008685" d="M83.46,46.846c-0.529-0.311-0.703-0.99-0.388-1.519c0.311-0.527,0.992-0.701,1.52-0.392
	c0.523,0.313,0.7,0.99,0.388,1.52C84.671,46.983,83.989,47.159,83.46,46.846z"/>
<path fill="#008685" d="M86.114,45.712c-0.533-0.308-0.707-0.991-0.395-1.521c0.313-0.529,0.995-0.704,1.52-0.391
	c0.529,0.313,0.706,0.993,0.393,1.521C87.322,45.852,86.643,46.024,86.114,45.712z"/>
<path fill="#008685" d="M86.954,42.867c-0.522-0.312-0.699-0.992-0.39-1.522c0.312-0.525,0.993-0.699,1.521-0.386
	c0.53,0.306,0.701,0.988,0.389,1.52C88.164,43.005,87.483,43.178,86.954,42.867z"/>
<path fill="#008685" d="M85.705,40.135c-0.533-0.313-0.704-0.992-0.393-1.519c0.311-0.53,0.99-0.707,1.518-0.394
	c0.528,0.314,0.708,0.991,0.389,1.52C86.907,40.271,86.228,40.446,85.705,40.135z"/>
<path fill="#008685" d="M83.235,39.414c-0.536-0.312-0.708-0.991-0.395-1.519c0.309-0.526,0.991-0.702,1.52-0.391
	c0.527,0.31,0.703,0.99,0.394,1.517C84.44,39.551,83.762,39.726,83.235,39.414z"/>
<path fill="#008685" d="M80.773,40.467c-0.528-0.313-0.705-0.995-0.388-1.525c0.311-0.526,0.989-0.702,1.518-0.387
	c0.53,0.311,0.701,0.992,0.391,1.52C81.98,40.603,81.3,40.777,80.773,40.467z"/>
<path fill="#008685" d="M83.192,43.235c-0.672-0.397-0.894-1.266-0.502-1.935c0.396-0.675,1.265-0.896,1.935-0.499
	c0.674,0.396,0.897,1.263,0.5,1.935C84.727,43.411,83.859,43.629,83.192,43.235z"/>
<path fill="#008685" d="M64.415,60.859c-0.147-1.214,0.717-2.321,1.934-2.472c1.219-0.148,2.331,0.72,2.478,1.936
	c0.147,1.219-0.721,2.326-1.934,2.475C65.672,62.944,64.566,62.079,64.415,60.859z"/>
<path fill="#008685" d="M58.679,58.101c-0.174-1.434,0.846-2.739,2.283-2.914c1.437-0.177,2.743,0.845,2.919,2.278
	c0.173,1.438-0.846,2.742-2.282,2.92C60.162,60.561,58.857,59.541,58.679,58.101z"/>
<path fill="#008685" d="M69.521,63.258c-0.121-0.973,0.571-1.859,1.547-1.978c0.973-0.12,1.86,0.571,1.98,1.546
	c0.117,0.974-0.576,1.865-1.549,1.979C70.527,64.924,69.641,64.232,69.521,63.258z"/>
<path fill="#008685" d="M74.082,65.672c-0.284-0.541-0.076-1.213,0.467-1.494c0.542-0.289,1.218-0.076,1.497,0.469
	c0.288,0.544,0.079,1.211-0.465,1.495C75.036,66.427,74.363,66.216,74.082,65.672z"/>
<path fill="#008685" d="M73.73,68.338c-0.283-0.541-0.07-1.209,0.472-1.495c0.547-0.28,1.218-0.078,1.498,0.468
	c0.285,0.545,0.075,1.217-0.468,1.498C74.686,69.095,74.017,68.883,73.73,68.338z"/>
<path fill="#008685" d="M75.248,70.983c-0.284-0.548-0.076-1.215,0.466-1.498c0.545-0.285,1.218-0.074,1.497,0.469
	c0.286,0.545,0.076,1.212-0.469,1.498C76.202,71.737,75.532,71.523,75.248,70.983z"/>
<path fill="#008685" d="M78.098,71.417c-0.286-0.544-0.075-1.214,0.471-1.501c0.541-0.282,1.211-0.07,1.493,0.473
	c0.291,0.545,0.075,1.212-0.465,1.496C79.052,72.174,78.381,71.959,78.098,71.417z"/>
<path fill="#008685" d="M80.315,69.442c-0.282-0.54-0.072-1.209,0.471-1.498c0.542-0.282,1.213-0.07,1.497,0.475
	c0.288,0.539,0.073,1.211-0.471,1.496C81.271,70.199,80.602,69.987,80.315,69.442z"/>
<path fill="#008685" d="M80.691,66.463c-0.286-0.545-0.072-1.215,0.467-1.503c0.546-0.282,1.214-0.071,1.502,0.47
	c0.281,0.545,0.07,1.217-0.472,1.498C81.646,67.215,80.976,67.002,80.691,66.463z"/>
<circle fill="#008685" cx="79.957" cy="64.034" r="1.11"/>
<path fill="#008685" d="M76.329,64.141c-0.285-0.544-0.072-1.213,0.47-1.496c0.543-0.287,1.216-0.074,1.499,0.47
	c0.281,0.542,0.072,1.214-0.474,1.499C77.285,64.896,76.609,64.686,76.329,64.141z"/>
<path fill="#008685" d="M76.922,67.77c-0.359-0.691-0.095-1.546,0.598-1.905c0.692-0.366,1.548-0.095,1.906,0.594
	c0.362,0.692,0.096,1.548-0.599,1.911C78.137,68.73,77.285,68.461,76.922,67.77z"/>
<path fill="none" d="M43.91,37.465c3.262,1.529,5.55,5.016,5.55,9.08s-2.288,7.551-5.55,9.08c4.356-0.395,7.778-4.307,7.778-9.08
	C51.688,41.771,48.266,37.861,43.91,37.465z"/>
<path fill="#6200EE" d="M20.771,21.271c0.006,0.005,0.006,0.005,0.004,0.02C20.816,21.454,20.743,21.076,20.771,21.271z"/>
<path fill="#6200EE" d="M60.05,75.49l-0.457-0.208c-0.025-0.024-0.626-0.254-0.914-0.305c-0.21-0.036-0.699-0.109-0.889-0.129
	l-0.01-0.003c-0.015,0.003-0.015,0.003-0.034,0.003c-1.227-0.082-3.012-1.307-4.199-2.823c0,0-4.641-6.858-1.501-11.565
	c1.594-2.389,2.273-2.594,2.999-3.643c-0.004-0.002-0.008-0.005-0.015-0.008c2.766-2.945,4.469-6.898,4.469-11.262
	c0-9.099-7.378-16.48-16.483-16.48c-1.407,0-2.773,0.185-4.076,0.519v-0.004c-0.013,0.005-0.023,0.008-0.036,0.011
	c-0.273,0.071-0.544,0.148-0.811,0.231c-3.55,0.918-9.618,1.105-13.243-2.097c-0.762-0.67-2.942-2.353-3.531-3.858
	c-0.374-1.69-0.196-0.817-0.262-1.134c-0.13-0.581-0.183-0.975-0.283-1.444c-0.011-0.042-0.164-0.631-0.188-0.656
	c-0.5-1.519-1.337-2.225-1.593-2.49c-0.01-0.014-0.028-0.016-0.031-0.032c-0.356-0.369-0.781-0.68-1.227-0.926
	c-0.034-0.01-0.05-0.027-0.084-0.042c-0.216-0.116-0.442-0.219-0.686-0.309c-0.028-0.012-0.057-0.022-0.083-0.025
	c-0.228-0.074-0.454-0.139-0.692-0.188c-0.024-0.007-0.053-0.014-0.085-0.018c-0.253-0.048-0.504-0.082-0.761-0.096
	c-0.049-0.004-0.105,0-0.157-0.006c-0.266-0.01-0.536-0.007-0.811,0.018c-1.284,0.124-2.382,0.672-3.241,1.501
	c-0.249,0.227-0.465,0.475-0.676,0.733c-0.024,0.009-0.06,0.076-0.073,0.088c-0.702,0.996-1.101,2.172-1.009,3.478
	c0.104,1.211,0.378,2.359,1.125,3.163c0.794,1.133,2.266,1.838,3.821,2.104c0,0,0.819,0.098,0.873,0.098
	c0.683,0.016,1.534-0.059,1.534-0.059c0.02-0.008,3.349,0.229,4.95,1.293c0,0,4.408,3.514,5.777,9.23
	c1.08,4.514-2.736,10.294-10.451,11.294c-1.417,0.186-3.737,0.891-7.315-0.407c-0.554-0.204-0.606-0.259-1.057-0.419
	c-0.009-0.009-1.068-0.361-1.101-0.355c-1.228-0.25-1.702-0.096-1.717-0.1c-0.071,0.009-1.029,0.082-1.438,0.176
	c-0.034,0-0.619,0.146-0.836,0.266c-0.077,0.035-0.148,0.054-0.225,0.088c-0.032,0.01-0.061,0.028-0.08,0.033
	c-0.212,0.11-0.417,0.23-0.625,0.359c-0.021,0.016-0.049,0.032-0.076,0.047c-0.211,0.149-0.413,0.303-0.61,0.47
	c-0.035,0.033-0.071,0.071-0.116,0.106c-0.195,0.182-0.38,0.371-0.557,0.578c-0.833,0.996-1.219,2.163-1.248,3.352
	c-0.016,0.334,0,0.669,0.037,0.998c-0.008,0.021,0.01,0.09,0.016,0.115c0.194,1.203,0.667,2.41,1.728,3.179
	c3.408,2.47,6.906,0.72,7.94-0.329c1.032-1.051,1.355-1.998,1.643-2.59c0.391-0.798,0.466-0.865,1.118-1.392
	c0.56-0.321,1.167-0.603,1.789-0.803c0,0,5.625-1.28,10.947,1.218c4.201,1.97,6.335,8.563,2.305,15.217
	c-0.739,1.221-2.456,4.447-4.589,5.34c-0.374,0.157-0.962,0.488-1.372,0.736c-0.011,0.003-0.326,0.199-0.326,0.209
	c-0.177,0.091-0.527,0.352-0.547,0.378c-0.429,0.349-0.792,0.739-1.08,1.182c-0.015,0.013-0.01,0.026-0.028,0.04
	c-0.283,0.424-0.496,0.907-0.641,1.395c0,0.033-0.011,0.058-0.017,0.085c-0.066,0.243-0.122,0.487-0.155,0.741
	c-0.006,0.028-0.006,0.061-0.008,0.087c-0.026,0.237-0.034,0.47-0.034,0.716c0,0.027,0,0.061,0,0.092
	c0.009,0.259,0.03,0.506,0.067,0.762c0.014,0.05,0.027,0.104,0.031,0.157c0.051,0.263,0.108,0.521,0.197,0.781
	c0.393,1.233,1.167,2.187,2.161,2.845c0.276,0.195,0.566,0.354,0.863,0.503c0.018,0.015,0.085,0.042,0.1,0.052
	c0.034,0.016,0.067,0.018,0.095,0.031c0.091,0.051,0.17,0.114,0.262,0.164c0.013,0.016,0.082,0.045,0.099,0.052
	c1.103,0.519,2.333,0.702,3.601,0.38c2.617-0.712,4.126-3.107,3.786-5.884l-0.132-0.72c0-0.035-0.346-1.177-0.67-2.031
	c-0.564-1.795-0.666-2.715-0.114-4.553c0,0,2.132-5.363,7.206-8.33c4.005-2.34,10.642-0.366,13.841,6.727
	c0.589,1.299,2.672,4.425,1.885,7.141c-0.18,0.629-0.243,1.107-0.266,1.586c-0.008,0.01-0.008,0.01,0,0.016
	c-0.031,0.199-0.041,1.41,0.36,2.226c0.003,0.018,0.02,0.024,0.02,0.042c0.189,0.473,0.464,0.926,0.781,1.321
	c0.022,0.019,0.041,0.042,0.063,0.065c0.159,0.19,0.333,0.375,0.521,0.544c0.02,0.023,0.048,0.041,0.068,0.058
	c0.185,0.156,0.367,0.293,0.572,0.434c0.016,0.014,0.043,0.037,0.075,0.053c0.211,0.135,0.429,0.259,0.664,0.375
	c0.045,0.018,0.095,0.037,0.147,0.063c0.24,0.108,0.492,0.205,0.754,0.287c1.238,0.369,2.463,0.273,3.566-0.171
	c0.318-0.118,0.612-0.267,0.9-0.427c0.026-0.002,0.083-0.049,0.106-0.056c0.335-0.221,0.645-0.482,0.933-0.765
	c0.598-0.537,1.096-1.196,1.404-2.01C63.605,79.42,62.515,76.803,60.05,75.49z M15.326,23.128c-0.75,0.218-1.538-0.208-1.756-0.956
	c-0.226-0.755,0.211-1.537,0.957-1.756c0.748-0.217,1.534,0.206,1.753,0.964C16.503,22.125,16.069,22.909,15.326,23.128z
	 M5.991,55.11c-0.748,0.22-1.536-0.207-1.753-0.957c-0.228-0.752,0.208-1.537,0.955-1.755c0.749-0.22,1.535,0.208,1.753,0.962
	C7.17,54.108,6.735,54.89,5.991,55.11z M24.661,81.724c-0.749,0.221-1.538-0.207-1.757-0.954c-0.223-0.754,0.21-1.537,0.956-1.756
	c0.75-0.218,1.536,0.209,1.755,0.962C25.84,80.723,25.405,81.507,24.661,81.724z M43.91,55.625c3.262-1.529,5.55-5.016,5.55-9.08
	s-2.288-7.551-5.55-9.08c4.356,0.396,7.778,4.305,7.778,9.08C51.688,51.319,48.266,55.231,43.91,55.625z M57.822,81.724
	c-0.75,0.221-1.539-0.207-1.755-0.954c-0.227-0.754,0.208-1.537,0.956-1.756c0.748-0.218,1.535,0.209,1.751,0.962
	C59.001,80.723,58.566,81.507,57.822,81.724z"/>
<g>
	<g>
		<path fill="#008685" stroke="#008685" stroke-width="1.216" stroke-miterlimit="10" d="M103.67,57.272h-5.669v-1.156h13.227v1.156
			h-5.668v11.489h-1.89V57.272z"/>
		<path fill="#008685" stroke="#008685" stroke-width="1.216" stroke-miterlimit="10" d="M135.411,68.445
			c-0.29-0.21-0.434-0.503-0.434-0.876V56.116h12.001v1.156h-10.112v4.444h9.346v1.155h-9.346v4.732h10.112v1.157h-10.342
			C136.108,68.761,135.7,68.655,135.411,68.445z"/>
		<path fill="#008685" stroke="#008685" stroke-width="1.216" stroke-miterlimit="10" d="M173.101,68.445
			c-0.783-0.308-1.393-0.741-1.826-1.3c-0.434-0.561-0.651-1.207-0.651-1.943h1.839c0,0.748,0.311,1.353,0.932,1.816
			c0.621,0.463,1.443,0.695,2.465,0.695h2.834c1.004,0,1.813-0.159,2.426-0.479c0.613-0.319,0.92-0.738,0.92-1.256v-1.156
			c0-0.409-0.227-0.758-0.678-1.047s-1.068-0.477-1.852-0.561l-4.596-0.542c-1.294-0.155-2.299-0.481-3.014-0.976
			c-0.715-0.493-1.072-1.113-1.072-1.86v-0.976c0-0.879,0.464-1.58,1.392-2.104c0.929-0.523,2.158-0.786,3.69-0.786h2.885
			c1.447,0,2.613,0.311,3.499,0.931s1.328,1.437,1.328,2.448h-1.839c0-0.663-0.272-1.192-0.816-1.59
			c-0.545-0.397-1.27-0.596-2.172-0.596h-2.885c-0.971,0-1.745,0.152-2.324,0.461c-0.578,0.307-0.867,0.719-0.867,1.236v0.976
			c0,0.422,0.217,0.776,0.65,1.066c0.434,0.288,1.035,0.481,1.801,0.577l4.57,0.561c1.328,0.168,2.357,0.49,3.09,0.967
			c0.732,0.475,1.098,1.08,1.098,1.814v1.156c0,0.879-0.477,1.587-1.43,2.123c-0.953,0.535-2.205,0.803-3.754,0.803h-2.937
			C174.786,68.905,173.884,68.751,173.101,68.445z"/>
		<path fill="#008685" stroke="#008685" stroke-width="1.216" stroke-miterlimit="10" d="M212.169,57.272h-5.668v-1.156h13.227
			v1.156h-5.668v11.489h-1.891V57.272z"/>
		<path fill="#008685" stroke="#008685" stroke-width="1.216" stroke-miterlimit="10" d="M243.476,56.116h1.787l9.908,10.531V56.116
			h1.838v12.646h-1.787l-9.908-10.46v10.46h-1.838V56.116z"/>
		<path fill="#008685" stroke="#008685" stroke-width="1.216" stroke-miterlimit="10" d="M282.468,68.445
			c-0.289-0.21-0.434-0.503-0.434-0.876V56.116h12.001v1.156h-10.112v4.444h9.346v1.155h-9.346v4.732h10.112v1.157h-10.342
			C283.165,68.761,282.757,68.655,282.468,68.445z"/>
		<path fill="#008685" stroke="#008685" stroke-width="1.216" stroke-miterlimit="10" d="M322.685,57.272h-5.668v-1.156h13.227
			v1.156h-5.668v11.489h-1.891V57.272z"/>
	</g>
</g>
</svg>
