<?xml version="1.0" encoding="utf-8"?>
<!-- Generator: Adobe Illustrator 15.0.0, SVG Export Plug-In  -->
<!DOCTYPE svg PUBLIC "-//W3C//DTD SVG 1.1//EN" "http://www.w3.org/Graphics/SVG/1.1/DTD/svg11.dtd" [
	<!ENTITY ns_flows "http://ns.adobe.com/Flows/1.0/">
]>
<svg version="1.1"
	 xmlns="http://www.w3.org/2000/svg" xmlns:xlink="http://www.w3.org/1999/xlink" xmlns:a="http://ns.adobe.com/AdobeSVGViewerExtensions/3.0/"
	 x="0px" y="0px" width="253px" height="62px" viewBox="-3.5043945 -2.9702148 253 62"
	 enable-background="new -3.5043945 -2.9702148 253 62" xml:space="preserve">
<defs>
</defs>
<path fill="#6200EE" d="M78.0898438,37.9526367L66.371582,26.137207v12.6835938h-3.1938477V22.0761719
	c0-0.4946289,0.1274414-0.8847656,0.3837891-1.1733398c0.2568359-0.2895508,0.5878906-0.4345703,0.9975586-0.4345703
	c0.5922852,0,1.2001953,0.3149414,1.8125,0.9438477l11.7700195,11.7905273v-12.734375h3.190918v16.7441406
	c0,1.171875-0.4072266,1.7578125-1.21875,1.7578125C79.5097656,38.9702148,78.8369141,38.6323242,78.0898438,37.9526367z"/>
<path fill="#6200EE" d="M88.8198242,35.7045898h12.6679688v3.1904297H85.6298828V20.5429688h15.8579102v3.1918945H88.8198242
	V35.7045898z M100.6708984,27.9731445v3.1943359H90.1757813v-3.1943359H100.6708984z"/>
<path fill="#6200EE" d="M116.0859375,38.8950195h-1.1005859c-3.0986328,0-5.4287109-0.6025391-6.9960938-1.8095703
	c-1.7338867-1.3457031-2.6020508-3.4980469-2.6020508-6.4609375v-10.081543h3.1948242v10.0795898
	c0,1.9433594,0.5917969,3.3125,1.7827148,4.1113281c0.987793,0.6464844,2.5327148,0.9707031,4.6206055,0.9707031h1.1005859
	c2.0932617,0,3.6308594-0.3242188,4.6225586-0.9707031c1.1923828-0.7988281,1.7851563-2.1679688,1.7851563-4.1113281V20.5429688
	h3.1904297v10.081543c0,2.9628906-0.875,5.1152344-2.6264648,6.4609375
	C121.5068359,38.2924805,119.1816406,38.8950195,116.0859375,38.8950195z"/>
<path fill="#6200EE" d="M214.5083008,38.8950195h-1.0957031c-3.0966797,0-5.4316406-0.6025391-6.9980469-1.8095703
	c-1.7363281-1.3457031-2.6035156-3.4980469-2.6035156-6.4609375v-10.081543h3.1914063v10.0795898
	c0,1.9433594,0.5957031,3.3125,1.7890625,4.1113281c0.9882813,0.6464844,2.5273438,0.9707031,4.6210938,0.9707031h1.0957031
	c2.09375,0,3.6347656-0.3242188,4.6230469-0.9707031c1.1914063-0.7988281,1.7832031-2.1679688,1.7832031-4.1113281V20.5429688
	h3.1933594v10.081543c0,2.9628906-0.8740234,5.1152344-2.625,6.4609375
	C219.9321289,38.2924805,217.6079102,38.8950195,214.5083008,38.8950195z"/>
<path fill="#6200EE" d="M151.0141602,38.8950195h-4.7285156l-5.1308594-5.1347656h-6.8974609v-3.1923828h8.6005859
	c1.4990234,0,2.6425781-0.3662109,3.4277344-1.0996094c0.6826172-0.6689453,0.9980469-1.4848633,0.9443359-2.4589844
	c-0.1162109-2.1835938-1.5751953-3.2744141-4.3720703-3.2744141h-10.4882813v15.1601563h-3.1923828V20.5429688h13.1904297
	c2.7753906,0,4.8808594,0.6743164,6.3144531,2.0234375c1.2070313,1.1225586,1.8417969,2.6079102,1.8945313,4.449707
	c0.0488281,1.4521484-0.3398438,2.7294922-1.1621094,3.8378906c-0.9150391,1.2285156-2.2392578,2.0732422-3.9765625,2.5341797
	L151.0141602,38.8950195z"/>
<path fill="#6200EE" d="M170.371582,33.8100586h-8.7177734l1.9541016-3.1894531h4.8828125l-3.2255859-5.2827148
	l-8.2626953,13.5620117h-4.1328125l9.9609375-16.5766602c0.3222656-0.5244141,0.7382813-0.9541016,1.2460938-1.2949219
	c0.4492188-0.3046875,0.8359375-0.4677734,1.1796875-0.4819336c0.3730469-0.0366211,0.7890625,0.0932617,1.2480469,0.3813477
	c0.53125,0.3388672,0.9726563,0.8085938,1.3271484,1.4023438l9.7578125,16.5698242h-4.1103516L170.371582,33.8100586z"/>
<path fill="#6200EE" d="M178.293457,38.8950195V20.5429688h3.1933594v15.1616211h12.6416016v3.1904297H178.293457z"/>
<path fill="#6200EE" d="M197.0571289,38.8950195V20.5429688h3.1933594v18.3520508H197.0571289z"/>
<path fill="#6200EE" d="M238.355957,30.8256836l-9.4375-9.456543c-0.6230469-0.6386719-1.2324219-0.9584961-1.8359375-0.9584961
	c-0.4150391,0-0.7519531,0.1474609-1.0126953,0.4399414c-0.2587891,0.2958984-0.3857422,0.690918-0.3857422,1.1928711v16.9833984
	h3.234375V26.159668l7.0322266,7.09375L238.355957,30.8256836z"/>
<path fill="#6200EE" d="M233.5454102,30.8256836l9.4384766-9.456543c0.6201172-0.6386719,1.2392578-0.9584961,1.8408203-0.9584961
	c0.4121094,0,0.7519531,0.1474609,1.0078125,0.4399414c0.2539063,0.2958984,0.3945313,0.690918,0.3945313,1.1928711v16.9833984
	h-3.2431641V26.159668l-7.0332031,7.09375L233.5454102,30.8256836z"/>
<path fill="#008685" d="M198.3725586,18.972168c0,0-2.1181641-7.9121094,5.8779297-10.4868164
	c7.8652344-2.5273438,5.2617188-5.4614258,5.8398438-5.0927734l0,0
	C210.090332,3.3925781,212.5405273,16.7143555,198.3725586,18.972168"/>
<circle fill="#008685" cx="26.5957031" cy="11.3007813" r="1.4344225"/>
<path fill="#008685" d="M27.5795898,16.5361328c-0.7573242,0.5449219-1.8134766,0.3706055-2.3569336-0.3862305
	c-0.5449219-0.7597656-0.3691406-1.8144531,0.3867188-2.359375c0.7592773-0.5444336,1.8139648-0.3696289,2.3613281,0.3876953
	C28.512207,14.9370117,28.3378906,15.9931641,27.5795898,16.5361328z"/>
<path fill="#008685" d="M27.2626953,8.9921875c-0.512207,0.3671875-1.2304688,0.2495117-1.5991211-0.2666016
	c-0.3676758-0.5126953-0.2519531-1.2275391,0.2641602-1.6000977c0.5136719-0.3666992,1.2314453-0.2490234,1.5986328,0.265625
	C27.8945313,7.9052734,27.7783203,8.6230469,27.2626953,8.9921875z"/>
<circle fill="#008685" cx="26.4614258" cy="5.4118652" r="0.7158561"/>
<circle fill="#008685" cx="26.4621582" cy="0.7158203" r="0.7161948"/>
<path fill="#008685" d="M27.222168,3.5693359c-0.2802734,0.418457-0.8481445,0.5332031-1.2651367,0.2519531
	c-0.4228516-0.2783203-0.5322266-0.847168-0.2519531-1.2631836c0.2792969-0.4189453,0.8442383-0.5332031,1.2646484-0.2504883
	C27.3896484,2.5854492,27.4990234,3.1523438,27.222168,3.5693359z"/>
<circle fill="#008685" cx="24.1140137" cy="3.0625" r="0.7157218"/>
<circle fill="#008685" cx="28.8110352" cy="3.0644531" r="0.7163978"/>
<circle fill="#008685" cx="24.8017578" cy="4.7241211" r="0.7153268"/>
<path fill="#008685" d="M28.2631836,2.1069336c-0.3886719,0.0742188-0.765625-0.1757813-0.8432617-0.5629883
	c-0.0766602-0.3891602,0.1743164-0.765625,0.5639648-0.8413086c0.3862305-0.0795898,0.7631836,0.1738281,0.840332,0.5620117
	C28.9042969,1.6538086,28.6508789,2.0292969,28.2631836,2.1069336z"/>
<circle fill="#008685" cx="28.123291" cy="4.7255859" r="0.7154697"/>
<path fill="#008685" d="M24.6625977,2.1083984c0.3881836,0.0751953,0.7661133-0.1757813,0.8422852-0.5639648
	c0.0766602-0.3876953-0.1743164-0.7651367-0.5639648-0.8408203c-0.3862305-0.078125-0.7646484,0.1743164-0.8398438,0.5615234
	C24.0195313,1.6542969,24.2744141,2.0307617,24.6625977,2.1083984z"/>
<circle fill="#008685" cx="39.5241699" cy="15.6225586" r="1.4341135"/>
<circle fill="#008685" cx="37.0454102" cy="18.5864258" r="1.6902117"/>
<path fill="#008685" d="M41.5175781,14.277832c-0.6313477-0.0463867-1.1044922-0.5961914-1.0566406-1.2290039
	c0.0458984-0.6298828,0.59375-1.1030273,1.2290039-1.0576172c0.6289063,0.0478516,1.105957,0.5991211,1.0561523,1.2280273
	C42.6982422,13.8515625,42.1503906,14.3261719,41.5175781,14.277832z"/>
<circle fill="#008685" cx="43.1984863" cy="11.0180664" r="0.7168656"/>
<path fill="#008685" d="M46.4125977,8.1035156c-0.3803711,0.1108398-0.777832-0.1069336-0.8891602-0.4853516
	c-0.1103516-0.3818359,0.1054688-0.7783203,0.4873047-0.8896484c0.3774414-0.1137695,0.7763672,0.1064453,0.8857422,0.4868164
	C47.0112305,7.5947266,46.7924805,7.9926758,46.4125977,8.1035156z"/>
<path fill="#008685" d="M44.9638672,10.0913086c-0.4833984,0.1416016-0.9921875-0.1328125-1.1323242-0.6157227
	c-0.1459961-0.4868164,0.1347656-0.9916992,0.6171875-1.1328125c0.4833984-0.1416016,0.9887695,0.1337891,1.1308594,0.6191406
	C45.7231445,9.4443359,45.4433594,9.9511719,44.9638672,10.0913086z"/>
<circle fill="#008685" cx="42.9033203" cy="7.7119141" r="0.7159972"/>
<path fill="#008685" d="M45.8183594,10.925293c-0.1079102-0.3793945,0.1074219-0.7783203,0.487793-0.8886719
	c0.3789063-0.112793,0.7753906,0.105957,0.8862305,0.4863281c0.1147461,0.3779297-0.1054688,0.7758789-0.4848633,0.887207
	C46.328125,11.5239258,45.9306641,11.3051758,45.8183594,10.925293z"/>
<circle fill="#008685" cx="42.3662109" cy="9.4260254" r="0.7154144"/>
<path fill="#008685" d="M46.6987305,9.637207c-0.3457031-0.1904297-0.4736328-0.6230469-0.284668-0.9711914
	c0.1904297-0.3491211,0.6259766-0.4760742,0.9741211-0.284668c0.3447266,0.1860352,0.4731445,0.6230469,0.2832031,0.9711914
	C47.484375,9.7021484,47.0473633,9.8261719,46.6987305,9.637207z"/>
<circle fill="#008685" cx="44.9130859" cy="11.5576172" r="0.7164351"/>
<path fill="#008685" d="M43.9365234,7.3295898c0.25,0.3071289,0.7001953,0.355957,1.0078125,0.1079102
	c0.3081055-0.2485352,0.3574219-0.6992188,0.1079102-1.0058594c-0.2460938-0.309082-0.6992188-0.3579102-1.0058594-0.1079102
	C43.734375,6.5708008,43.6889648,7.0219727,43.9365234,7.3295898z"/>
<path fill="#008685" d="M44.4648438,28.3642578c-0.4946289-0.6171875-0.3969727-1.5205078,0.2192383-2.0141602
	c0.6171875-0.4975586,1.5209961-0.3994141,2.0141602,0.2172852c0.4990234,0.6162109,0.3994141,1.5185547-0.2167969,2.0161133
	C45.8642578,29.0795898,44.9648438,28.9838867,44.4648438,28.3642578z"/>
<path fill="#008685" d="M40.3828125,28.8037109c-0.5825195-0.7250977-0.46875-1.7890625,0.2583008-2.3730469
	c0.7275391-0.5854492,1.7905273-0.4716797,2.3745117,0.2553711c0.5854492,0.7255859,0.4692383,1.7919922-0.2548828,2.3779297
	C42.0336914,29.6479492,40.9682617,29.5327148,40.3828125,28.8037109z"/>
<path fill="#008685" d="M48.078125,27.9414063c-0.3935547-0.4946289-0.3183594-1.2158203,0.1782227-1.6108398
	c0.4916992-0.3974609,1.2138672-0.3188477,1.6113281,0.1748047c0.3955078,0.4916992,0.3188477,1.2158203-0.1738281,1.6103516
	C49.1977539,28.5107422,48.4775391,28.434082,48.078125,27.9414063z"/>
<path fill="#008685" d="M51.4013672,27.7124023c-0.3413086-0.199707-0.4521484-0.6396484-0.2504883-0.980957
	c0.2001953-0.3398438,0.6381836-0.453125,0.9794922-0.2524414c0.3427734,0.2011719,0.4516602,0.6411133,0.2548828,0.9799805
	C52.1806641,27.8007813,51.7421875,27.9130859,51.4013672,27.7124023z"/>
<path fill="#008685" d="M52.1186523,29.2944336c-0.3413086-0.2011719-0.4516602-0.640625-0.2514648-0.9833984
	c0.2026367-0.3413086,0.6401367-0.453125,0.9780273-0.253418c0.3442383,0.2026367,0.456543,0.6416016,0.2548828,0.9829102
	C52.8999023,29.3813477,52.4594727,29.4936523,52.1186523,29.2944336z"/>
<circle fill="#008685" cx="54.2119141" cy="29.6079102" r="0.7160696"/>
<path fill="#008685" d="M55.559082,29.4916992c-0.3427734-0.1972656-0.4555664-0.6386719-0.253418-0.9799805
	c0.2006836-0.3408203,0.6411133-0.4541016,0.9799805-0.2514648c0.3413086,0.2016602,0.4545898,0.6396484,0.2529297,0.9814453
	C56.3388672,29.5834961,55.9003906,29.6948242,55.559082,29.4916992z"/>
<path fill="#008685" d="M56.1010742,27.6572266c-0.3364258-0.2011719-0.4511719-0.6396484-0.2514648-0.9824219
	c0.2021484-0.3393555,0.640625-0.4511719,0.980957-0.2495117c0.3422852,0.1987305,0.4526367,0.6381836,0.2519531,0.9804688
	C56.8818359,27.7460938,56.4428711,27.8579102,56.1010742,27.6572266z"/>
<path fill="#008685" d="M55.2954102,25.8945313c-0.3442383-0.2021484-0.4550781-0.640625-0.2548828-0.980957
	c0.2011719-0.3413086,0.6396484-0.4541016,0.9799805-0.2529297c0.3408203,0.2016602,0.456543,0.6391602,0.2514648,0.9804688
	C56.0712891,25.9819336,55.6328125,26.0952148,55.2954102,25.8945313z"/>
<path fill="#008685" d="M53.7016602,25.4291992c-0.3452148-0.2016602-0.4555664-0.6391602-0.2539063-0.9804688
	c0.1992188-0.3398438,0.6396484-0.4526367,0.9804688-0.2514648c0.340332,0.199707,0.4541016,0.6391602,0.2539063,0.9790039
	C54.4804688,25.5175781,54.0415039,25.6308594,53.7016602,25.4291992z"/>
<circle fill="#008685" cx="52.4780273" cy="25.4914551" r="0.7167"/>
<circle fill="#008685" cx="54.1367188" cy="27.1091309" r="0.9107423"/>
<path fill="#008685" d="M41.559082,39.2651367c-0.0942383-0.7832031,0.4628906-1.4980469,1.2475586-1.5957031
	c0.7861328-0.0957031,1.503418,0.4658203,1.5991211,1.25c0.0947266,0.7871094-0.4648438,1.5-1.2480469,1.5957031
	C42.3701172,40.6108398,41.65625,40.0532227,41.559082,39.2651367z"/>
<circle fill="#008685" cx="39.5368652" cy="37.2807617" r="1.6904641"/>
<circle fill="#008685" cx="45.9919434" cy="40.6738281" r="1.1462988"/>
<path fill="#008685" d="M47.7958984,42.3706055c-0.1835938-0.3496094-0.0488281-0.7832031,0.3022461-0.9648438
	c0.3491211-0.1855469,0.7851563-0.0488281,0.965332,0.3027344c0.1855469,0.3515625,0.050293,0.78125-0.2998047,0.9658203
	C48.4125977,42.8579102,47.9785156,42.722168,47.7958984,42.3706055z"/>
<circle fill="#008685" cx="48.2050781" cy="43.7597656" r="0.716567"/>
<path fill="#008685" d="M48.5488281,45.7963867c-0.1835938-0.3535156-0.0493164-0.7832031,0.300293-0.9658203
	c0.3525391-0.1835938,0.7851563-0.046875,0.9672852,0.3027344C50,45.4838867,49.8647461,45.9155273,49.512207,46.0991211
	C49.1640625,46.2836914,48.7319336,46.1459961,48.5488281,45.7963867z"/>
<path fill="#008685" d="M50.387207,46.0776367c-0.1835938-0.3515625-0.0483398-0.7832031,0.3041992-0.9677734
	c0.3491211-0.1826172,0.78125-0.0458984,0.9633789,0.3046875c0.1875,0.3505859,0.0488281,0.78125-0.300293,0.9638672
	C51.003418,46.565918,50.5703125,46.4272461,50.387207,46.0776367z"/>
<path fill="#008685" d="M51.8183594,44.8022461c-0.1821289-0.3476563-0.046875-0.7792969,0.3037109-0.9648438
	c0.3491211-0.1826172,0.7827148-0.046875,0.9648438,0.3056641c0.1860352,0.3476563,0.0478516,0.7802734-0.3032227,0.9638672
	C52.4345703,45.2905273,52.0024414,45.1547852,51.8183594,44.8022461z"/>
<path fill="#008685" d="M52.0610352,42.8823242c-0.1845703-0.3535156-0.0463867-0.7851563,0.3017578-0.9707031
	c0.3520508-0.1826172,0.7832031-0.046875,0.9677734,0.3027344c0.1821289,0.3515625,0.0463867,0.7861328-0.3041992,0.9667969
	C52.6767578,43.3666992,52.2436523,43.2290039,52.0610352,42.8823242z"/>
<circle fill="#008685" cx="51.5871582" cy="41.3129883" r="0.7161247"/>
<circle fill="#008685" cx="49.8808594" cy="41.0522461" r="0.7163412"/>
<circle fill="#008685" cx="50.4367676" cy="43.3017578" r="0.9120617"/>
<path fill="none" d="M28.3300781,24.1723633c2.1049805,0.9853516,3.5805664,3.2363281,3.5805664,5.8574219
	c0,2.6220703-1.4755859,4.8730469-3.5805664,5.8583984c2.8100586-0.2539063,5.0185547-2.7773438,5.0185547-5.8583984
	C33.3486328,26.9492188,31.1401367,24.4272461,28.3300781,24.1723633z"/>
<path fill="#6200EE" d="M13.4008789,13.7236328c0.0043945,0.003418,0.0043945,0.003418,0.0024414,0.0126953
	C13.4301758,13.8417969,13.3818359,13.5976563,13.4008789,13.7236328z"/>
<path fill="#6200EE" d="M38.7426758,48.7045898l-0.2944336-0.1347656c-0.0166016-0.015625-0.4038086-0.1640625-0.5893555-0.1953125
	c-0.1362305-0.0234375-0.4501953-0.0712891-0.5732422-0.0839844l-0.0068359-0.0009766
	c-0.0092773,0.0009766-0.0092773,0.0009766-0.0214844,0.0009766c-0.7905273-0.0527344-1.9433594-0.84375-2.7094727-1.8203125
	c0,0-2.9941406-4.4257813-0.9682617-7.4619141c1.0288086-1.5419922,1.4672852-1.6748047,1.9350586-2.3496094
	c-0.0024414-0.0029297-0.0053711-0.0048828-0.0087891-0.0068359c1.7836914-1.9003906,2.8828125-4.4511719,2.8828125-7.2646484
	c0-5.8720703-4.7607422-10.6333008-10.6347656-10.6333008c-0.9082031,0-1.7890625,0.1196289-2.6298828,0.3334961v-0.0009766
	c-0.0083008,0.0024414-0.0151367,0.0043945-0.0229492,0.0058594c-0.1762695,0.0458984-0.3515625,0.0961914-0.5234375,0.1503906
	c-2.2910156,0.5908203-6.2045898,0.7124023-8.5444336-1.3535156c-0.4916992-0.4326172-1.8979492-1.5185547-2.277832-2.4892578
	c-0.2412109-1.090332-0.1269531-0.5263672-0.1689453-0.7319336c-0.0834961-0.3745117-0.1186523-0.6293945-0.1831055-0.9316406
	c-0.0068359-0.027832-0.1049805-0.4072266-0.1210938-0.4233398c-0.3227539-0.9799805-0.862793-1.4360352-1.027832-1.6069336
	c-0.0063477-0.0083008-0.0180664-0.0107422-0.0205078-0.0200195c-0.2285156-0.2382813-0.5029297-0.4404297-0.7910156-0.5981445
	c-0.0214844-0.0063477-0.0327148-0.0175781-0.0537109-0.0263672c-0.1396484-0.074707-0.2866211-0.1416016-0.4428711-0.1992188
	c-0.0185547-0.0078125-0.0375977-0.0141602-0.0541992-0.0166016c-0.1469727-0.0478516-0.2924805-0.0888672-0.4462891-0.121582
	c-0.0161133-0.0043945-0.0351563-0.0087891-0.0561523-0.0112305c-0.1630859-0.0307617-0.324707-0.0527344-0.4897461-0.0620117
	c-0.0322266-0.0019531-0.0683594,0-0.1025391-0.0048828c-0.1704102-0.0058594-0.3447266-0.003418-0.5229492,0.012207
	c-0.8286133,0.0800781-1.5361328,0.4335938-2.0908203,0.9682617c-0.1601563,0.1469727-0.300293,0.3061523-0.4365234,0.4731445
	c-0.0146484,0.0058594-0.0385742,0.0483398-0.0463867,0.0571289c-0.453125,0.6425781-0.7104492,1.4008789-0.6513672,2.2436523
	c0.0678711,0.7807617,0.2446289,1.5219727,0.7255859,2.0415039c0.5131836,0.7299805,1.4624023,1.1845703,2.465332,1.3569336
	c0,0,0.5288086,0.0634766,0.5634766,0.0634766c0.4404297,0.0107422,0.9892578-0.0375977,0.9892578-0.0375977
	c0.0126953-0.0058594,2.1611328,0.1469727,3.1943359,0.8330078c0,0,2.8442383,2.2670898,3.7265625,5.9550781
	c0.6972656,2.9125977-1.7641602,6.6425781-6.7431641,7.2871094c-0.9125977,0.1191406-2.4101563,0.5751953-4.71875-0.2636719
	c-0.3579102-0.1308594-0.3911133-0.1650391-0.6821289-0.2695313c-0.0058594-0.0058594-0.6894531-0.2324219-0.7109375-0.2285156
	c-0.7924805-0.1611328-1.0976563-0.0615234-1.1069336-0.0644531c-0.0458984,0.0058594-0.6640625,0.0527344-0.9282227,0.1132813
	c-0.0209961,0-0.3994141,0.09375-0.5390625,0.171875c-0.0493164,0.0214844-0.0957031,0.0351563-0.1445313,0.0566406
	c-0.0219727,0.0068359-0.0400391,0.0175781-0.0522461,0.0214844c-0.1367188,0.0703125-0.2685547,0.1484375-0.4033203,0.2304688
	c-0.0131836,0.0117188-0.0317383,0.0224609-0.0488281,0.03125c-0.1347656,0.0957031-0.2666016,0.1953125-0.3925781,0.3027344
	c-0.0224609,0.0224609-0.0458984,0.046875-0.0751953,0.0693359c-0.1254883,0.1162109-0.2446289,0.2392578-0.3588867,0.3720703
	c-0.5375977,0.6425781-0.7866211,1.3964844-0.8046875,2.1630859c-0.0112305,0.2167969,0,0.4306641,0.0234375,0.6445313
	c-0.0053711,0.0126953,0.0058594,0.0576172,0.0097656,0.0732422c0.125,0.7753906,0.4301758,1.5556641,1.1152344,2.0517578
	c2.1982422,1.5927734,4.4555664,0.4638672,5.1225586-0.2138672c0.6660156-0.6777344,0.8735352-1.2880859,1.0595703-1.6699219
	c0.2519531-0.5146484,0.3012695-0.5576172,0.7216797-0.8984375c0.3613281-0.2070313,0.7524414-0.3886719,1.1542969-0.5175781
	c0,0,3.6289063-0.8261719,7.0625,0.7861328c2.7104492,1.2714844,4.0874023,5.5244141,1.4873047,9.8173828
	c-0.4765625,0.7880859-1.5839844,2.8701172-2.9614258,3.4453125c-0.2412109,0.1015625-0.6210938,0.3144531-0.8847656,0.4746094
	c-0.0078125,0.0019531-0.2104492,0.1289063-0.2104492,0.1357422c-0.1147461,0.0576172-0.3408203,0.2275391-0.3530273,0.2441406
	c-0.2768555,0.2246094-0.5112305,0.4755859-0.6972656,0.7617188c-0.0097656,0.0068359-0.0063477,0.0175781-0.0180664,0.0244141
	c-0.1831055,0.2734375-0.3193359,0.5859375-0.4135742,0.9013672c0,0.0205078-0.0063477,0.0361328-0.0112305,0.0556641
	c-0.0419922,0.15625-0.078125,0.3125-0.0991211,0.4765625c-0.0039063,0.0195313-0.0039063,0.0400391-0.0058594,0.0566406
	c-0.0166016,0.1523438-0.0219727,0.3027344-0.0219727,0.4609375c0,0.0175781,0,0.0390625,0,0.0605469
	c0.0068359,0.1660156,0.0195313,0.3261719,0.0439453,0.4902344c0.0083008,0.03125,0.0175781,0.0664063,0.019043,0.1025391
	c0.0336914,0.1689453,0.0708008,0.3359375,0.1274414,0.5039063c0.253418,0.7958984,0.7529297,1.4091797,1.3935547,1.8349609
	c0.1782227,0.1269531,0.3652344,0.2285156,0.5566406,0.3242188c0.012207,0.0107422,0.0556641,0.0273438,0.0649414,0.0332031
	c0.0214844,0.0097656,0.0429688,0.0126953,0.0610352,0.0214844c0.0585938,0.03125,0.1098633,0.0722656,0.1699219,0.1054688
	c0.0078125,0.0097656,0.0522461,0.0273438,0.0639648,0.0332031c0.7114258,0.3339844,1.5053711,0.453125,2.3232422,0.2441406
	c1.6879883-0.4589844,2.6611328-2.0039063,2.4418945-3.7949219l-0.0854492-0.4648438
	c0-0.0234375-0.222168-0.7597656-0.4316406-1.3105469c-0.3637695-1.1582031-0.4301758-1.7519531-0.0737305-2.9375
	c0,0,1.3754883-3.4589844,4.6499023-5.375c2.5839844-1.5087891,6.8657227-0.2353516,8.9291992,4.3398438
	c0.3803711,0.8388672,1.7231445,2.8564453,1.2163086,4.6074219c-0.1162109,0.40625-0.1572266,0.7148438-0.171875,1.0234375
	c-0.0053711,0.0058594-0.0053711,0.0058594,0,0.0097656c-0.0200195,0.1298828-0.0258789,0.9101563,0.2324219,1.4375
	c0.0019531,0.0097656,0.012207,0.0146484,0.012207,0.0263672c0.1225586,0.3056641,0.300293,0.5966797,0.5053711,0.8525391
	c0.0136719,0.0126953,0.0253906,0.0263672,0.0405273,0.0410156c0.1020508,0.1230469,0.2143555,0.2421875,0.3359375,0.3515625
	c0.0131836,0.015625,0.0307617,0.0273438,0.0444336,0.0371094c0.1191406,0.1015625,0.2373047,0.1894531,0.3691406,0.2792969
	c0.0107422,0.0107422,0.0273438,0.0234375,0.0488281,0.0351563c0.1367188,0.0878906,0.2763672,0.1669922,0.4287109,0.2412109
	c0.0288086,0.0126953,0.0610352,0.0244141,0.0942383,0.0410156c0.1552734,0.0703125,0.3173828,0.1328125,0.487793,0.1845703
	c0.7978516,0.2382813,1.5893555,0.1757813,2.300293-0.109375c0.2050781-0.0761719,0.3950195-0.1738281,0.5810547-0.2753906
	c0.0166016-0.0019531,0.0537109-0.03125,0.0678711-0.0361328c0.2167969-0.1416016,0.4160156-0.3115234,0.6025391-0.4931641
	c0.3847656-0.3466797,0.7070313-0.7714844,0.9057617-1.296875C41.0361328,51.2407227,40.3334961,49.5522461,38.7426758,48.7045898z
	 M9.8876953,14.921875c-0.4838867,0.140625-0.9921875-0.1347656-1.1328125-0.6171875
	C8.609375,13.8188477,8.890625,13.3134766,9.3725586,13.171875c0.4829102-0.140625,0.9897461,0.1333008,1.1308594,0.6206055
	C10.6479492,14.2749023,10.3676758,14.7802734,9.8876953,14.921875z M3.8647461,35.5561523
	c-0.4824219,0.140625-0.9912109-0.1337891-1.1313477-0.6171875c-0.1469727-0.4853516,0.1347656-0.9912109,0.6166992-1.1328125
	c0.4829102-0.140625,0.9897461,0.1347656,1.1313477,0.6210938C4.6254883,34.909668,4.3452148,35.4135742,3.8647461,35.5561523z
	 M15.9111328,52.7270508c-0.4833984,0.1425781-0.9921875-0.1337891-1.1337891-0.6152344
	c-0.1445313-0.4863281,0.1352539-0.9921875,0.6171875-1.1328125c0.4838867-0.140625,0.9902344,0.1337891,1.1323242,0.6201172
	C16.6713867,52.0825195,16.390625,52.5874023,15.9111328,52.7270508z M28.3300781,35.8881836
	c2.1049805-0.9853516,3.5805664-3.2363281,3.5805664-5.8583984c0-2.6210938-1.4755859-4.8720703-3.5805664-5.8574219
	c2.8100586,0.2548828,5.0185547,2.7768555,5.0185547,5.8574219C33.3486328,33.1108398,31.1401367,35.6342773,28.3300781,35.8881836z
	 M37.3056641,52.7270508c-0.4833984,0.1425781-0.9921875-0.1337891-1.1318359-0.6152344
	c-0.1459961-0.4863281,0.1337891-0.9921875,0.6166992-1.1328125s0.9897461,0.1337891,1.1303711,0.6201172
	C38.0664063,52.0825195,37.7856445,52.5874023,37.3056641,52.7270508z"/>
</svg>
